<?xml version="1.0" standalone="no"?>
<!DOCTYPE svg PUBLIC "-//W3C//DTD SVG 20010904//EN"
 "http://www.w3.org/TR/2001/REC-SVG-20010904/DTD/svg10.dtd">
<svg version="1.0" xmlns="http://www.w3.org/2000/svg"
 width="225.000000pt" height="225.000000pt" viewBox="0 0 225.000000 225.000000"
 preserveAspectRatio="xMidYMid meet">

<g transform="translate(0.000000,225.000000) scale(0.100000,-0.100000)"
fill="#000000" stroke="none">
<path d="M0 1125 l0 -1125 1125 0 1125 0 0 1125 0 1125 -1125 0 -1125 0 0
-1125z m1210 -2 l0 -698 -208 208 -207 207 -213 0 -212 0 0 285 0 285 213 0
212 0 205 205 c113 113 206 205 207 205 2 0 3 -314 3 -697z m350 182 l125
-125 127 127 128 128 27 -28 28 -27 -123 -123 c-67 -67 -122 -127 -122 -132 0
-5 55 -65 122 -132 l123 -123 -28 -27 -27 -28 -127 128 -128 127 -127 -127
-128 -128 -27 28 -28 27 128 127 127 128 -127 127 -127 127 24 26 c13 14 26
25 29 25 4 0 62 -56 131 -125z"/>
</g>
</svg>
